<svg
        xmlns="http://www.w3.org/2000/svg"
        fill="currentColor"
        viewBox="0 0 100 100"
        height="20px"
>
    <path d="M25.3,32.9L5,48.6L5.2,17L25.3,32.9z M34.2,34.2h59.4c0.8,0,1.4-0.6,1.4-1.4c0-0.8-0.6-1.4-1.4-1.4H34.2  c-0.8,0-1.4,0.6-1.4,1.4C32.7,33.6,33.4,34.2,34.2,34.2z M93.6,55.7H6.6c-0.8,0-1.4,0.6-1.4,1.4c0,0.8,0.6,1.4,1.4,1.4h86.9  c0.8,0,1.4-0.6,1.4-1.4C95,56.4,94.4,55.7,93.6,55.7z M93.6,80.1H6.6c-0.8,0-1.4,0.6-1.4,1.4S5.8,83,6.6,83h86.9  c0.8,0,1.4-0.6,1.4-1.4S94.4,80.1,93.6,80.1z" />
</svg>
