<svg xmlns="http://www.w3.org/2000/svg" xmlns:xlink="http://www.w3.org/1999/xlink" version="1.1" preserveAspectRatio="none" x="0px" y="0px" viewBox="0 -0.03687315806746483 100 125.07374572753906" width="100%" height="100%" ><rect id="svgEditorBackground" x="0" y="0" width="100" height="125" style="fill:none;stroke:none;"/><defs><g id="a"><path fill="#000000" stroke="none" d=" M 54.05 16 Q 54.0576171875 14.990234375 53.3 14.25 52.6033203125 13.5091796875 51.55 13.5 50.543359375 13.4927734375 49.8 14.2 L 29.1 34.5 11.35 34.5 Q 10.3107421875 34.50390625 9.55 35.25 8.83984375 35.987109375 8.85 37 L 9.1 64.5 Q 9.1083984375 65.5302734375 9.8 66.25 10.538671875 66.977734375 11.55 67 L 28.95 67.2 48.95 86.35 Q 49.7146484375 87.0576171875 50.7 87.05 51.7462890625 87.0412109375 52.45 86.3 53.191015625 85.5962890625 53.2 84.55 L 54.05 16 M 30.1 39.5 Q 31.113671875 39.4953125 31.85 38.75 L 48.95 22 48.25 78.75 31.65 62.95 Q 30.9724609375 62.2724609375 30 62.25 L 14.05 62 13.85 39.5 30.1 39.5 M 87.5 34.3 Q 86.46484375 34.3091796875 85.7 35.05 L 73.7 47.1 61.95 34.85 Q 61.228515625 34.123828125 60.2 34.1 59.1708984375 34.0802734375 58.4 34.8 57.673828125 35.5185546875 57.65 36.55 57.6330078125 37.5791015625 58.35 38.3 L 70.2 50.65 58.15 62.8 Q 57.4466796875 63.541796875 57.45 64.55 57.459375 65.6013671875 58.2 66.3 58.941015625 67.0552734375 59.95 67.05 60.999609375 67.03984375 61.7 66.3 L 73.65 54.25 85.25 66.25 Q 85.96953125 67.023828125 87 67.05 88.029296875 67.06953125 88.75 66.35 89.526171875 65.6310546875 89.55 64.6 89.5689453125 63.5728515625 88.85 62.8 L 77.2 50.7 89.25 38.55 Q 90.0021484375 37.8224609375 90 36.8 89.99140625 35.7625 89.25 35 88.523046875 34.2955078125 87.5 34.3 Z"/></g></defs><g transform="matrix( 1, 0, 0, 1, 0,0) "><use xlink:href="#a"/></g><text x="0" y="115" fill="#000000" font-size="5px" font-weight="bold" font-family="'Helvetica Neue', Helvetica, Arial-Unicode, Arial, Sans-serif"></text><text x="0" y="120" fill="#000000" font-size="5px" font-weight="bold" font-family="'Helvetica Neue', Helvetica, Arial-Unicode, Arial, Sans-serif"></text></svg>